<?xml version="1.0" standalone="no"?><!DOCTYPE svg PUBLIC "-//W3C//DTD SVG 1.1//EN" "http://www.w3.org/Graphics/SVG/1.1/DTD/svg11.dtd"><svg t="1690473957591" class="icon" viewBox="0 0 1024 1024" version="1.1" xmlns="http://www.w3.org/2000/svg" p-id="7412" xmlns:xlink="http://www.w3.org/1999/xlink" width="200" height="200"><path d="M221.041778 915.057778a79.104 79.104 0 0 1-78.848-78.848V520.817778a79.018667 79.018667 0 0 1 78.848-78.762667h50.830222v-96.711111a231.537778 231.537778 0 0 1 463.047111 0h-57.400889a174.165333 174.165333 0 1 0-348.302222 0v96.711111h475.904a78.563556 78.563556 0 0 1 78.819556 78.762667V836.266667a80.270222 80.270222 0 0 1-79.644445 78.848z m-21.560889-394.24V836.266667a21.589333 21.589333 0 0 0 21.560889 21.475555h584.106666a21.532444 21.532444 0 0 0 21.475556-21.475555V520.817778a21.532444 21.532444 0 0 0-21.475556-21.475556H221.041778a21.589333 21.589333 0 0 0-21.560889 21.475556z m272.355555 186.396444v-78.108444a37.774222 37.774222 0 0 1 38.058667-37.973334 37.290667 37.290667 0 0 1 37.973333 37.973334v78.848a38.599111 38.599111 0 0 1-37.973333 37.233778 37.831111 37.831111 0 0 1-38.030222-37.973334z" p-id="7413" fill="#1afa29"></path></svg>